<?xml version="1.0" encoding="utf-8"?>
<!DOCTYPE svg PUBLIC "-//W3C//DTD SVG 1.1//EN" "http://www.w3.org/Graphics/SVG/1.1/DTD/svg11.dtd" [
	<!ENTITY ns_svg "http://www.w3.org/2000/svg">
	<!ENTITY ns_xlink "http://www.w3.org/1999/xlink">
]>
<svg  version="1.1"
	 xmlns="&ns_svg;" xmlns:xlink="&ns_xlink;" width="300" height="324.923" viewBox="-22.743 -22.679 300 324.923"
	 overflow="visible" enable-background="new -22.743 -22.679 300 324.923" xml:space="preserve">
<g>
	<path fill="#FF7E00" d="M127.251-22.679l-26.198,49.003c-2.974,5.326-8.297,4.834-13.625,1.858l-18.97-9.851l14.14,75.266
		c2.975,13.752-6.564,13.752-11.272,7.808L38.223,64.245l-5.376,18.872c-0.617,2.478-3.345,5.078-7.433,4.457l-41.855-8.82
		l10.994,40.08c2.354,8.92,4.187,12.613-2.377,14.967l-14.919,7.032l72.054,58.692c2.855,2.22,4.295,6.216,3.28,9.829l-6.307,20.753
		c24.806-2.863,47.054-5.434,71.859-8.297c2.205-0.028,3.646,1.199,3.63,3.741l-4.423,76.692h19.814l-4.424-76.692
		c-0.016-2.542,1.426-3.77,3.631-3.741c24.805,2.863,47.053,5.434,71.859,8.297l-6.307-20.753c-1.016-3.613,0.424-7.609,3.279-9.829
		l72.054-58.692l-14.919-7.032c-6.563-2.354-4.73-6.047-2.377-14.967l10.994-40.08l-41.855,8.82
		c-4.087,0.621-6.815-1.979-7.433-4.457l-5.376-18.872l-33.102,37.161c-4.707,5.944-14.246,5.944-11.271-7.808l14.139-75.266
		l-18.97,9.851c-5.329,2.976-10.651,3.468-13.626-1.858L127.251-22.679z"/>
</g>
</svg>
